<svg xmlns="http://www.w3.org/2000/svg" xmlns:xlink="http://www.w3.org/1999/xlink" width="537.172" height="653.647" viewBox="0 0 537.172 653.647">
  <defs>
    <linearGradient id="linear-gradient" x1="0.498" y1="0.04" x2="0.296" y2="1.35" gradientUnits="objectBoundingBox">
      <stop offset="0" stop-color="#152663" stop-opacity="0.631"/>
      <stop offset="1" stop-color="#00ace0"/>
    </linearGradient>
    <linearGradient id="linear-gradient-2" x1="0.313" y1="0.077" x2="1.019" y2="1.01" xlink:href="#linear-gradient"/>
    <linearGradient id="linear-gradient-3" x1="0.044" y1="0.127" x2="1.371" y2="1.261" xlink:href="#linear-gradient"/>
    <linearGradient id="linear-gradient-4" x1="1.231" y1="0.128" x2="-1.396" y2="1.299" xlink:href="#linear-gradient"/>
    <linearGradient id="linear-gradient-5" x1="0.5" y1="0.966" x2="0.492" y2="0.3" gradientUnits="objectBoundingBox">
      <stop offset="0" stop-color="#00e6f8" stop-opacity="0.502"/>
      <stop offset="0.359" stop-color="#202e6f" stop-opacity="0.102"/>
      <stop offset="0.631" stop-color="#36387a" stop-opacity="0.102"/>
      <stop offset="0.844" stop-color="#d385ce"/>
      <stop offset="1" stop-color="#eeebee"/>
    </linearGradient>
    <linearGradient id="linear-gradient-6" x1="0.254" y1="-0.016" x2="0.744" y2="1.046" gradientUnits="objectBoundingBox">
      <stop offset="0" stop-color="#00e6f8"/>
      <stop offset="0.359" stop-color="#202e6f" stop-opacity="0.102"/>
      <stop offset="0.631" stop-color="#36387a" stop-opacity="0.102"/>
      <stop offset="0.844" stop-color="#d385ce"/>
      <stop offset="1" stop-color="#eeebee"/>
    </linearGradient>
    <linearGradient id="linear-gradient-7" x1="0.955" y1="0.868" x2="0.022" y2="0.097" xlink:href="#linear-gradient"/>
    <linearGradient id="linear-gradient-8" x1="0.066" y1="0.916" x2="1.079" y2="0.122" xlink:href="#linear-gradient"/>
    <radialGradient id="radial-gradient" cx="0.5" cy="0.5" r="0.5" gradientUnits="objectBoundingBox">
      <stop offset="0" stop-color="#4d547c"/>
      <stop offset="0.148" stop-color="#3e386f"/>
      <stop offset="1" stop-color="#122155" stop-opacity="0"/>
    </radialGradient>
    <linearGradient id="linear-gradient-9" x1="0.645" y1="0.971" x2="0.148" y2="0.248" xlink:href="#linear-gradient-5"/>
    <linearGradient id="linear-gradient-10" x1="-0.052" y1="0.165" x2="0.796" y2="0.796" xlink:href="#linear-gradient-6"/>
    <linearGradient id="linear-gradient-11" x1="0.342" y1="0.61" x2="0.861" y2="0.25" xlink:href="#linear-gradient-5"/>
    <linearGradient id="linear-gradient-12" x1="-0.137" y1="0.914" x2="0.766" y2="0.107" xlink:href="#linear-gradient"/>
  </defs>
  <g id="Group_6" data-name="Group 6" transform="translate(-673.552 -65.484)">
    <g id="Group_2" data-name="Group 2" transform="translate(-346.796 249.629)">
      <path id="Path_1" data-name="Path 1" d="M1183.21,73.766l45.848,275.48L1269.42,89.832Z" opacity="0.63" fill="url(#linear-gradient)"/>
      <path id="Path_2" data-name="Path 2" d="M1107.188,115.3l76.022-41.538,45.848,275.48Z" opacity="0.63" fill="url(#linear-gradient-2)"/>
      <path id="Path_3" data-name="Path 3" d="M1117.376,174.083l-10.188-58.78,121.87,233.943Z" opacity="0.63" fill="url(#linear-gradient-3)"/>
      <path id="Path_4" data-name="Path 4" d="M1280,147.828l-10.58-58-40.362,259.414Z" opacity="0.63" fill="url(#linear-gradient-4)"/>
      <path id="Path_5" data-name="Path 5" d="M1117.768,174.475l39.578-255.1L1202.8,190.149Z" fill="url(#linear-gradient-5)"/>
      <path id="Path_6" data-name="Path 6" d="M1279.608,147.436,1202.8,190.149,1157.347-80.629Z" fill="url(#linear-gradient-6)"/>
      <path id="Path_7" data-name="Path 7" d="M1269.42,88.265l10.188,59.171L1157.347-80.629Z" opacity="0.63" fill="url(#linear-gradient-7)"/>
      <path id="Path_8" data-name="Path 8" d="M1106.8,114.52l10.972,59.955,39.578-255.1Z" opacity="0.63" fill="url(#linear-gradient-8)"/>
    </g>
    <ellipse id="Ellipse_1" data-name="Ellipse 1" cx="202.5" cy="73.5" rx="202.5" ry="73.5" transform="translate(673.552 573.226) rotate(-7)" fill="url(#radial-gradient)"/>
    <ellipse id="Ellipse_2" data-name="Ellipse 2" cx="100.218" cy="36.375" rx="100.218" ry="36.375" transform="translate(690.939 568.992) rotate(-7)" opacity="0.5" fill="url(#radial-gradient)"/>
    <ellipse id="Ellipse_3" data-name="Ellipse 3" cx="150.218" cy="54.375" rx="150.218" ry="54.375" transform="translate(802.118 581.179) rotate(-7)" opacity="0.5" fill="url(#radial-gradient)"/>
    <g id="Group_3" data-name="Group 3" transform="matrix(0.839, 0.545, -0.545, 0.839, 285.032, -624.703)">
      <path id="Path_9" data-name="Path 9" d="M1234.063,599.341l-100.187-37.949-34.155-308.15Z" transform="translate(0 0)" fill="url(#linear-gradient-9)"/>
      <path id="Path_10" data-name="Path 10" d="M1268.218,511.3l-34.155,88.043-134.341-346.1Z" transform="translate(0 0)" fill="url(#linear-gradient-10)"/>
      <path id="Path_11" data-name="Path 11" d="M1238.493,702.307,1138.307,601.361l100.187,37.949Z" transform="translate(-4.43 -39.97)" fill="url(#linear-gradient-11)"/>
      <path id="Path_12" data-name="Path 12" d="M1285.643,544.77l-34.155,151.039v-63Z" transform="translate(-17.425 -33.472)" fill="url(#linear-gradient-12)"/>
    </g>
    <g id="Group_4" data-name="Group 4" transform="translate(-421.72 283.69) rotate(-7)">
      <path id="Path_9-2" data-name="Path 9" d="M1158,403.379l-43.461-16.462-14.816-133.675Z" transform="translate(0 0)" fill="url(#linear-gradient-9)"/>
      <path id="Path_10-2" data-name="Path 10" d="M1172.815,365.186,1158,403.379l-58.277-150.137Z" transform="translate(0 0)" fill="url(#linear-gradient-10)"/>
      <path id="Path_11-2" data-name="Path 11" d="M1181.767,645.151l-43.461-43.79,43.461,16.462Z" transform="translate(-23.769 -214.445)" fill="url(#linear-gradient-11)"/>
      <path id="Path_12-2" data-name="Path 12" d="M1266.3,544.77l-14.816,65.52V582.963Z" transform="translate(-93.49 -179.585)" fill="url(#linear-gradient-12)"/>
    </g>
    <rect id="Rectangle_4" data-name="Rectangle 4" width="11" height="11" rx="2" transform="matrix(0.588, -0.809, 0.809, 0.588, 894.818, 242.717)" fill="#009be3"/>
    <rect id="Rectangle_5" data-name="Rectangle 5" width="5" height="5" rx="1" transform="matrix(0.588, -0.809, 0.809, 0.588, 863.672, 202.244)" fill="#009be3"/>
    <rect id="Rectangle_6" data-name="Rectangle 6" width="5" height="5" rx="1" transform="matrix(0.588, -0.809, 0.809, 0.588, 811.672, 329.244)" fill="#009be3"/>
    <rect id="Rectangle_7" data-name="Rectangle 7" width="5" height="5" rx="1" transform="matrix(0.588, -0.809, 0.809, 0.588, 946.672, 332.736)" fill="#009be3"/>
    <rect id="Rectangle_8" data-name="Rectangle 8" width="3" height="3" rx="1" transform="matrix(0.588, -0.809, 0.809, 0.588, 930.29, 183.911)" fill="#009be3"/>
    <rect id="Rectangle_9" data-name="Rectangle 9" width="3" height="3" rx="1" transform="matrix(0.588, -0.809, 0.809, 0.588, 996.29, 213.911)" fill="#009be3"/>
    <rect id="Rectangle_11" data-name="Rectangle 11" width="3" height="3" rx="1" transform="matrix(0.588, -0.809, 0.809, 0.588, 757.905, 254.911)" fill="#009be3"/>
    <rect id="Rectangle_10" data-name="Rectangle 10" width="3" height="3" rx="1" transform="matrix(0.588, -0.809, 0.809, 0.588, 892.29, 117.911)" fill="#009be3"/>
    <rect id="Rectangle_12" data-name="Rectangle 12" width="3" height="3" rx="1" transform="matrix(0.588, -0.809, 0.809, 0.588, 935.068, 67.911)" fill="#009be3"/>
  </g>
</svg>
